<?xml version="1.0" encoding="utf-8"?>
<svg viewBox="99.9995 154.5378 300.1385 79.7502" xmlns="http://www.w3.org/2000/svg">
<g fill="#000000">
  <path d="M 129.382 175.375 C 129.561 176.029 129.323 176.207 128.789 176.266 C 124.572 177.098 120.534 178.404 116.792 180.483 C 108.359 185.293 103.371 192.598 101.173 201.922 C 101.055 202.516 100.817 202.813 100.164 202.813 C 100.104 202.694 100.045 202.575 100.045 202.456 C 99.807 197.171 100.461 192.063 103.014 187.312 C 105.924 182.027 110.557 178.879 116.258 177.098 C 120.534 175.732 124.869 175.316 129.382 175.375 Z" style="" transform="matrix(1, 0, 0, 1, 0, -3.552713678800501e-15)"/>
  <path d="M 145.061 175.257 C 147.377 175.435 149.634 175.494 151.95 175.791 C 155.632 176.207 159.195 177.217 162.521 178.939 C 169.053 182.383 172.795 187.847 173.923 195.033 C 174.339 197.586 174.339 200.2 174.517 202.753 C 173.448 203.05 173.329 202.516 173.151 201.862 C 171.37 194.142 167.569 187.669 161.214 182.858 C 156.582 179.354 151.297 177.395 145.655 176.207 C 145.001 176.148 145.001 176.148 145.061 175.257 Z" style="" transform="matrix(1, 0, 0, 1, 0, -3.552713678800501e-15)"/>
  <path d="M 167.45 204.357 C 168.638 206.376 169.647 208.217 169.469 210.474 C 167.391 209.583 166.025 208.098 164.896 206.257 C 164.837 206.316 164.718 206.376 164.659 206.435 C 164.005 209.702 163.293 212.908 162.64 216.175 C 162.699 216.234 162.818 216.294 162.877 216.353 C 164.599 215.225 166.44 214.334 168.638 214.393 C 168.103 216.828 166.262 218.669 164.124 219.025 C 160.799 219.56 157.651 217.006 157.176 213.443 C 157.117 212.908 157.176 212.612 157.651 212.255 C 159.136 211.305 159.67 209.642 159.136 208.039 C 158.661 206.495 157.235 205.426 155.572 205.485 C 153.969 205.485 152.544 206.554 152.069 208.098 C 151.593 209.702 152.128 211.305 153.613 212.315 C 154.028 212.612 154.147 212.849 154.088 213.324 C 153.553 216.947 149.931 219.738 146.07 219.441 C 142.745 219.204 139.241 215.343 139.3 211.839 C 140.31 212.315 141.26 212.612 142.151 213.146 C 143.042 213.681 143.814 214.393 144.704 215.046 C 144.704 211.543 144.704 208.276 144.704 204.713 C 143.042 206.316 141.438 207.564 139.241 207.92 C 139.657 205.723 140.844 204.06 142.507 202.456 C 138.885 202.456 135.559 202.456 132.233 202.456 C 132.174 202.516 132.114 202.575 132.114 202.634 C 133.658 204.06 134.787 205.782 135.262 207.92 C 133.005 207.564 131.402 206.257 129.798 204.713 L 129.798 214.868 L 129.976 215.046 C 131.402 213.443 133.065 212.374 135.321 211.899 C 134.906 213.859 134.193 215.522 133.005 216.887 C 131.045 219.085 128.61 219.916 125.819 219.085 C 122.969 218.253 121.128 216.353 120.474 213.384 C 120.356 212.849 120.474 212.552 120.949 212.196 C 122.375 211.246 122.909 209.583 122.434 207.979 C 121.959 206.435 120.474 205.426 118.871 205.426 C 117.267 205.426 115.901 206.435 115.367 207.979 C 114.833 209.583 115.367 211.246 116.852 212.196 C 117.267 212.493 117.446 212.79 117.386 213.265 C 117.089 215.997 115.189 218.194 112.516 218.907 C 108.834 219.857 106.34 216.828 105.924 214.334 C 108.062 214.274 109.903 215.165 111.685 216.294 C 111.744 216.234 111.804 216.175 111.863 216.056 C 111.21 212.79 110.497 209.583 109.844 206.316 C 109.785 206.257 109.666 206.257 109.606 206.198 C 108.478 207.979 107.112 209.523 104.974 210.295 C 105.093 209.226 105.212 208.217 105.568 207.267 C 105.924 206.316 106.459 205.426 106.993 204.297 C 104.677 204.772 102.599 205.188 100.52 205.663 C 100.52 205.96 100.52 206.138 100.579 206.316 C 101.53 210.949 102.48 215.581 103.489 220.213 C 103.549 220.629 103.905 221.045 104.262 221.282 C 105.271 222.054 106.34 222.707 107.409 223.42 C 106.637 224.608 105.924 225.617 105.212 226.686 C 105.034 226.983 104.915 227.399 104.974 227.637 C 105.509 229.834 106.043 231.972 106.637 234.288 C 127.185 231.556 147.614 231.556 168.103 234.288 C 168.638 232.209 169.113 230.25 169.647 228.29 C 169.885 227.518 169.766 226.924 169.291 226.33 C 168.578 225.439 167.984 224.43 167.331 223.361 C 168.4 222.648 169.35 221.935 170.419 221.342 C 170.954 220.985 171.251 220.629 171.37 219.976 C 172.082 216.353 172.854 212.79 173.567 209.167 C 173.804 207.979 174.042 206.792 174.339 205.604 C 171.904 205.247 169.825 204.832 167.45 204.357 Z M 121.425 225.736 C 120.712 226.33 119.821 227.043 118.99 227.043 C 118.158 227.043 117.208 226.389 116.555 225.736 C 116.139 225.32 116.258 224.37 116.258 223.658 C 116.258 223.242 116.258 222.648 116.495 222.47 C 117.267 221.935 118.099 221.282 118.93 221.163 C 119.524 221.104 120.237 221.876 120.949 222.173 C 121.959 222.589 121.484 223.479 121.662 224.37 C 121.603 224.727 121.721 225.439 121.425 225.736 Z M 137.222 226.449 C 136.212 225.38 135.143 224.252 134.193 223.183 C 135.084 222.292 136.153 221.223 137.162 220.213 C 138.231 221.223 139.241 222.292 140.31 223.301 C 139.3 224.311 138.291 225.38 137.222 226.449 Z M 157.889 225.736 C 157.176 226.33 156.226 227.102 155.394 227.102 C 154.563 227.102 153.613 226.389 152.959 225.736 C 152.603 225.38 152.722 224.489 152.722 223.836 C 152.722 223.361 152.662 222.707 152.959 222.529 C 153.672 221.935 154.563 221.223 155.394 221.223 C 156.226 221.223 157.117 221.935 157.829 222.529 C 158.185 222.826 158.067 223.598 158.185 224.133 C 158.126 224.667 158.185 225.439 157.889 225.736 Z" style="" transform="matrix(1, 0, 0, 1, 0, -3.552713678800501e-15)"/>
  <path d="M 132.233 175.257 L 132.233 198.774 L 142.151 198.774 C 142.151 190.876 142.151 183.096 142.151 175.257 C 138.825 175.257 135.559 175.257 132.233 175.257 Z M 137.162 177.692 C 137.875 178.404 138.588 179.176 139.3 179.948 C 138.647 180.602 137.875 181.314 137.222 181.968 C 136.509 181.255 135.796 180.542 135.084 179.77 C 135.737 179.176 136.45 178.404 137.162 177.692 Z M 139.241 187.134 C 138.647 187.728 137.934 188.441 137.222 189.153 C 136.509 188.381 135.796 187.669 135.143 186.956 C 135.796 186.362 136.509 185.65 137.281 184.878 C 137.875 185.59 138.528 186.362 139.241 187.134 Z M 137.162 196.636 C 136.509 195.983 135.796 195.27 135.084 194.558 L 137.222 192.42 C 137.934 193.073 138.647 193.786 139.3 194.498 C 138.588 195.211 137.875 195.924 137.162 196.636 Z" style="" transform="matrix(1, 0, 0, 1, 0, -3.552713678800501e-15)"/>
  <path d="M 145.536 162.37 C 144.942 161.657 144.051 161.657 142.923 162.488 C 140.904 161.182 139.3 159.519 137.934 157.619 C 138.825 156.431 138.885 155.659 138.172 154.946 C 137.637 154.412 136.806 154.412 136.212 154.887 C 135.44 155.481 135.499 156.193 136.331 157.619 C 134.965 159.519 133.361 161.182 131.342 162.429 C 130.273 161.657 129.501 161.598 128.848 162.191 C 128.314 162.726 128.254 163.498 128.729 164.151 C 129.323 164.923 130.095 164.923 131.461 164.092 C 133.421 165.398 135.084 167.002 136.39 168.962 C 135.499 170.09 135.44 170.921 136.093 171.575 C 136.628 172.109 137.459 172.109 138.053 171.634 C 138.825 170.981 138.825 170.209 137.934 168.902 C 138.944 167.18 141.26 164.983 142.923 164.032 C 144.051 164.864 144.883 164.923 145.536 164.151 C 146.011 163.795 146.011 162.904 145.536 162.37 Z M 137.162 164.923 C 136.687 164.448 136.093 163.795 135.737 163.32 C 136.093 162.904 136.747 162.251 137.281 161.598 C 137.756 162.191 138.291 162.845 138.647 163.379 C 138.291 163.736 137.697 164.389 137.162 164.923 Z" style="" transform="matrix(1, 0, 0, 1, 0, -3.552713678800501e-15)"/>
  <path d="M 361.299 212.138 C 361.299 218.255 359.755 223.422 355.835 227.698 C 352.272 231.558 347.759 233.577 342.532 234.112 C 338.138 234.527 333.862 233.874 330.002 231.736 C 323.944 228.47 320.618 223.244 319.609 216.533 C 318.896 211.841 319.431 207.328 321.509 203.052 C 325.072 195.925 331.011 192.303 338.791 191.768 C 343.483 191.412 347.937 192.362 351.916 194.916 C 357.142 198.301 359.992 203.171 361.002 209.228 C 361.18 210.357 361.24 211.485 361.299 212.138 Z M 353.994 212.91 C 353.935 212.138 353.875 211.366 353.816 210.654 C 353.103 204.24 348.768 198.538 341.166 198.123 C 336.059 197.826 331.249 199.964 328.636 204.893 C 326.676 208.575 326.32 212.495 327.032 216.533 C 328.161 222.769 332.496 227.104 338.672 227.757 C 344.195 228.351 348.709 226.451 351.737 221.581 C 353.341 218.968 353.935 215.998 353.994 212.91 Z" style="" transform="matrix(1, 0, 0, 1, 0, -3.552713678800501e-15)"/>
  <path d="M 262.834 197.529 C 261.528 199.251 260.281 200.855 259.033 202.577 C 258.618 202.22 258.261 201.864 257.846 201.567 C 253.926 198.598 249.531 197.351 244.662 198.242 C 242.524 198.598 240.801 199.726 240.148 201.983 C 239.614 203.705 240.029 205.249 241.573 206.14 C 242.88 206.912 244.305 207.565 245.79 208.04 C 248.522 208.872 251.313 209.466 253.985 210.357 C 255.767 210.95 257.549 211.782 259.212 212.732 C 262.656 214.87 264.141 218.077 263.903 222.115 C 263.606 227.579 260.815 231.38 255.233 233.043 C 247.809 235.24 240.683 234.349 234.15 229.895 C 233.259 229.301 232.487 228.529 231.596 227.817 C 232.903 225.976 234.15 224.253 235.457 222.472 L 236.05 223.066 C 240.326 226.985 245.374 228.767 251.194 227.817 C 252.62 227.579 253.985 227.045 255.114 226.094 C 257.192 224.431 257.964 220.393 254.52 218.374 C 252.56 217.246 250.363 216.711 248.225 216.117 C 245.671 215.405 243.118 214.692 240.564 213.86 C 239.554 213.564 238.663 213.029 237.773 212.495 C 234.15 210.297 232.606 207.031 232.962 202.874 C 233.319 198.242 235.991 195.213 240.089 193.372 C 243.177 192.006 246.384 191.709 249.71 191.946 C 254.223 192.303 258.321 193.728 261.825 196.638 C 262.24 196.935 262.537 197.232 262.834 197.529 Z" style="" transform="matrix(1, 0, 0, 1, 0, -3.552713678800501e-15)"/>
  <path d="M 181.533 233.815 C 181.77 233.399 181.889 233.043 182.067 232.686 C 188.778 219.384 195.489 206.14 202.199 192.837 C 202.378 192.422 202.556 192.125 203.09 192.125 C 203.625 192.125 203.862 192.362 204.1 192.837 C 210.87 206.259 217.64 219.68 224.41 233.043 C 224.529 233.221 224.589 233.458 224.767 233.755 C 223.401 233.755 222.094 233.755 220.788 233.755 C 219.719 233.755 218.709 233.755 217.64 233.755 C 217.165 233.755 216.928 233.577 216.749 233.161 C 215.443 230.43 214.077 227.698 212.77 224.966 C 212.533 224.491 212.295 224.253 211.701 224.253 C 206 224.253 200.24 224.253 194.538 224.253 C 194.004 224.253 193.766 224.431 193.529 224.907 C 192.222 227.698 190.856 230.43 189.49 233.161 C 189.312 233.577 189.015 233.755 188.6 233.755 C 186.284 233.815 184.027 233.815 181.533 233.815 Z M 203.209 205.427 C 201.13 209.703 199.052 213.801 197.033 217.958 L 209.326 217.958 C 207.247 213.801 205.288 209.703 203.209 205.427 Z" style="" transform="matrix(1, 0, 0, 1, 0, -3.552713678800501e-15)"/>
  <path d="M 311.354 200.914 C 309.335 201.983 307.375 202.993 305.415 204.061 C 305.356 204.002 305.237 203.943 305.237 203.883 C 301.852 198.479 295.26 196.638 289.084 199.37 C 284.392 201.448 281.838 205.249 281.066 210.238 C 280.354 214.87 281.185 219.205 284.214 222.947 C 288.549 228.292 297.754 230.192 303.693 224.075 C 304.287 223.422 304.821 222.709 305.475 221.937 C 307.434 222.947 309.453 223.897 311.532 224.966 C 309.929 227.52 307.969 229.598 305.534 231.261 C 301.852 233.696 297.754 234.527 293.359 234.23 C 289.202 233.933 285.402 232.746 282.016 230.311 C 276.196 226.035 273.524 220.156 273.524 213.088 C 273.524 205.962 276.078 199.964 282.016 195.866 C 288.905 191.174 296.329 190.402 303.99 193.906 C 307.137 195.332 309.394 197.766 311.235 200.617 C 311.235 200.617 311.235 200.736 311.354 200.914 Z" style="" transform="matrix(1, 0, 0, 1, 0, -3.552713678800501e-15)"/>
  <path d="M 380.897 198.835 C 376.68 198.835 372.583 198.835 368.366 198.835 C 368.366 196.579 368.366 194.441 368.366 192.243 L 400.138 192.243 L 400.138 198.776 C 395.981 198.776 391.884 198.776 387.667 198.776 L 387.667 233.696 C 385.351 233.696 383.154 233.696 380.897 233.696 C 380.897 222.115 380.897 210.535 380.897 198.835 Z" style="" transform="matrix(1, 0, 0, 1, 0, -3.552713678800501e-15)"/>
  </g>
</svg>