<svg enable-background="new 0 0 425.2 425.2" viewBox="0 0 425.2 425.2" xmlns="http://www.w3.org/2000/svg">
    <g fill="#1c2f5415">
        <path
            d="m197.7 116.4c.3 1.1-.1 1.4-1 1.5-7.1 1.4-13.9 3.6-20.2 7.1-14.2 8.1-22.6 20.4-26.3 36.1-.2 1-.6 1.5-1.7 1.5-.1-.2-.2-.4-.2-.6-.4-8.9.7-17.5 5-25.5 4.9-8.9 12.7-14.2 22.3-17.2 7.2-2.3 14.5-3 22.1-2.9z" />
        <path
            d="m224.1 116.2c3.9.3 7.7.4 11.6.9 6.2.7 12.2 2.4 17.8 5.3 11 5.8 17.3 15 19.2 27.1.7 4.3.7 8.7 1 13-1.8.5-2-.4-2.3-1.5-3-13-9.4-23.9-20.1-32-7.8-5.9-16.7-9.2-26.2-11.2-1.1-.1-1.1-.1-1-1.6z" />
        <path
            d="m261.8 165.2c2 3.4 3.7 6.5 3.4 10.3-3.5-1.5-5.8-4-7.7-7.1-.1.1-.3.2-.4.3-1.1 5.5-2.3 10.9-3.4 16.4.1.1.3.2.4.3 2.9-1.9 6-3.4 9.7-3.3-.9 4.1-4 7.2-7.6 7.8-5.6.9-10.9-3.4-11.7-9.4-.1-.9 0-1.4.8-2 2.5-1.6 3.4-4.4 2.5-7.1-.8-2.6-3.2-4.4-6-4.3-2.7 0-5.1 1.8-5.9 4.4-.8 2.7.1 5.4 2.6 7.1.7.5.9.9.8 1.7-.9 6.1-7 10.8-13.5 10.3-5.6-.4-11.5-6.9-11.4-12.8 1.7.8 3.3 1.3 4.8 2.2s2.8 2.1 4.3 3.2c0-5.9 0-11.4 0-17.4-2.8 2.7-5.5 4.8-9.2 5.4.7-3.7 2.7-6.5 5.5-9.2-6.1 0-11.7 0-17.3 0-.1.1-.2.2-.2.3 2.6 2.4 4.5 5.3 5.3 8.9-3.8-.6-6.5-2.8-9.2-5.4v17.1l.3.3c2.4-2.7 5.2-4.5 9-5.3-.7 3.3-1.9 6.1-3.9 8.4-3.3 3.7-7.4 5.1-12.1 3.7-4.8-1.4-7.9-4.6-9-9.6-.2-.9 0-1.4.8-2 2.4-1.6 3.3-4.4 2.5-7.1-.8-2.6-3.3-4.3-6-4.3s-5 1.7-5.9 4.3c-.9 2.7 0 5.5 2.5 7.1.7.5 1 1 .9 1.8-.5 4.6-3.7 8.3-8.2 9.5-6.2 1.6-10.4-3.5-11.1-7.7 3.6-.1 6.7 1.4 9.7 3.3.1-.1.2-.2.3-.4-1.1-5.5-2.3-10.9-3.4-16.4-.1-.1-.3-.1-.4-.2-1.9 3-4.2 5.6-7.8 6.9.2-1.8.4-3.5 1-5.1s1.5-3.1 2.4-5c-3.9.8-7.4 1.5-10.9 2.3 0 .5 0 .8.1 1.1 1.6 7.8 3.2 15.6 4.9 23.4.1.7.7 1.4 1.3 1.8 1.7 1.3 3.5 2.4 5.3 3.6-1.3 2-2.5 3.7-3.7 5.5-.3.5-.5 1.2-.4 1.6.9 3.7 1.8 7.3 2.8 11.2 34.6-4.6 69-4.6 103.5 0 .9-3.5 1.7-6.8 2.6-10.1.4-1.3.2-2.3-.6-3.3-1.2-1.5-2.2-3.2-3.3-5 1.8-1.2 3.4-2.4 5.2-3.4.9-.6 1.4-1.2 1.6-2.3 1.2-6.1 2.5-12.1 3.7-18.2.4-2 .8-4 1.3-6-4.1-.6-7.6-1.3-11.6-2.1zm-77.5 36c-1.2 1-2.7 2.2-4.1 2.2s-3-1.1-4.1-2.2c-.7-.7-.5-2.3-.5-3.5 0-.7 0-1.7.4-2 1.3-.9 2.7-2 4.1-2.2 1-.1 2.2 1.2 3.4 1.7 1.7.7.9 2.2 1.2 3.7-.1.6.1 1.8-.4 2.3zm26.6 1.2c-1.7-1.8-3.5-3.7-5.1-5.5 1.5-1.5 3.3-3.3 5-5 1.8 1.7 3.5 3.5 5.3 5.2-1.7 1.7-3.4 3.5-5.2 5.3zm34.8-1.2c-1.2 1-2.8 2.3-4.2 2.3s-3-1.2-4.1-2.3c-.6-.6-.4-2.1-.4-3.2 0-.8-.1-1.9.4-2.2 1.2-1 2.7-2.2 4.1-2.2s2.9 1.2 4.1 2.2c.6.5.4 1.8.6 2.7-.1.9 0 2.2-.5 2.7z" />
        <path
            d="m202.5 116.2v39.6h16.7c0-13.3 0-26.4 0-39.6-5.6 0-11.1 0-16.7 0zm8.3 4.1c1.2 1.2 2.4 2.5 3.6 3.8-1.1 1.1-2.4 2.3-3.5 3.4-1.2-1.2-2.4-2.4-3.6-3.7 1.1-1 2.3-2.3 3.5-3.5zm3.5 15.9c-1 1-2.2 2.2-3.4 3.4-1.2-1.3-2.4-2.5-3.5-3.7 1.1-1 2.3-2.2 3.6-3.5 1 1.2 2.1 2.5 3.3 3.8zm-3.5 16c-1.1-1.1-2.3-2.3-3.5-3.5l3.6-3.6c1.2 1.1 2.4 2.3 3.5 3.5-1.2 1.2-2.4 2.4-3.6 3.6z" />
        <path
            d="m224.9 94.5c-1-1.2-2.5-1.2-4.4.2-3.4-2.2-6.1-5-8.4-8.2 1.5-2 1.6-3.3.4-4.5-.9-.9-2.3-.9-3.3-.1-1.3 1-1.2 2.2.2 4.6-2.3 3.2-5 6-8.4 8.1-1.8-1.3-3.1-1.4-4.2-.4-.9.9-1 2.2-.2 3.3 1 1.3 2.3 1.3 4.6-.1 3.3 2.2 6.1 4.9 8.3 8.2-1.5 1.9-1.6 3.3-.5 4.4.9.9 2.3.9 3.3.1 1.3-1.1 1.3-2.4-.2-4.6 1.7-2.9 5.6-6.6 8.4-8.2 1.9 1.4 3.3 1.5 4.4.2.8-.6.8-2.1 0-3zm-14.1 4.3c-.8-.8-1.8-1.9-2.4-2.7.6-.7 1.7-1.8 2.6-2.9.8 1 1.7 2.1 2.3 3-.6.6-1.6 1.7-2.5 2.6z" />
        <path
            d="m329.9 273.1c0 10.3-2.6 19-9.2 26.2-6 6.5-13.6 9.9-22.4 10.8-7.4.7-14.6-.4-21.1-4-10.2-5.5-15.8-14.3-17.5-25.6-1.2-7.9-.3-15.5 3.2-22.7 6-12 16-18.1 29.1-19 7.9-.6 15.4 1 22.1 5.3 8.8 5.7 13.6 13.9 15.3 24.1.3 1.9.4 3.8.5 4.9zm-12.3 1.3c-.1-1.3-.2-2.6-.3-3.8-1.2-10.8-8.5-20.4-21.3-21.1-8.6-.5-16.7 3.1-21.1 11.4-3.3 6.2-3.9 12.8-2.7 19.6 1.9 10.5 9.2 17.8 19.6 18.9 9.3 1 16.9-2.2 22-10.4 2.7-4.4 3.7-9.4 3.8-14.6z" />
        <path
            d="m164.1 248.5c-2.2 2.9-4.3 5.6-6.4 8.5-.7-.6-1.3-1.2-2-1.7-6.6-5-14-7.1-22.2-5.6-3.6.6-6.5 2.5-7.6 6.3-.9 2.9-.2 5.5 2.4 7 2.2 1.3 4.6 2.4 7.1 3.2 4.6 1.4 9.3 2.4 13.8 3.9 3 1 6 2.4 8.8 4 5.8 3.6 8.3 9 7.9 15.8-.5 9.2-5.2 15.6-14.6 18.4-12.5 3.7-24.5 2.2-35.5-5.3-1.5-1-2.8-2.3-4.3-3.5 2.2-3.1 4.3-6 6.5-9l1 1c7.2 6.6 15.7 9.6 25.5 8 2.4-.4 4.7-1.3 6.6-2.9 3.5-2.8 4.8-9.6-1-13-3.3-1.9-7-2.8-10.6-3.8-4.3-1.2-8.6-2.4-12.9-3.8-1.7-.5-3.2-1.4-4.7-2.3-6.1-3.7-8.7-9.2-8.1-16.2.6-7.8 5.1-12.9 12-16 5.2-2.3 10.6-2.8 16.2-2.4 7.6.6 14.5 3 20.4 7.9.7.5 1.2 1 1.7 1.5z" />
        <path
            d="m27.2 309.6c.4-.7.6-1.3.9-1.9 11.3-22.4 22.6-44.7 33.9-67.1.3-.7.6-1.2 1.5-1.2s1.3.4 1.7 1.2c11.4 22.6 22.8 45.2 34.2 67.7.2.3.3.7.6 1.2-2.3 0-4.5 0-6.7 0-1.8 0-3.5 0-5.3 0-.8 0-1.2-.3-1.5-1-2.2-4.6-4.5-9.2-6.7-13.8-.4-.8-.8-1.2-1.8-1.2-9.6 0-19.3 0-28.9 0-.9 0-1.3.3-1.7 1.1-2.2 4.7-4.5 9.3-6.8 13.9-.3.7-.8 1-1.5 1-3.9.1-7.7.1-11.9.1zm36.5-47.8c-3.5 7.2-7 14.1-10.4 21.1h20.7c-3.5-7-6.8-13.9-10.3-21.1z" />
        <path
            d="m245.8 254.2c-3.4 1.8-6.7 3.5-10 5.3-.1-.1-.3-.2-.3-.3-5.7-9.1-16.8-12.2-27.2-7.6-7.9 3.5-12.2 9.9-13.5 18.3-1.2 7.8.2 15.1 5.3 21.4 7.3 9 22.8 12.2 32.8 1.9 1-1.1 1.9-2.3 3-3.6 3.3 1.7 6.7 3.3 10.2 5.1-2.7 4.3-6 7.8-10.1 10.6-6.2 4.1-13.1 5.5-20.5 5-7-.5-13.4-2.5-19.1-6.6-9.8-7.2-14.3-17.1-14.3-29 0-12 4.3-22.1 14.3-29 11.6-7.9 24.1-9.2 37-3.3 5.3 2.4 9.1 6.5 12.2 11.3 0 0 0 .2.2.5z" />
        <path
            d="m362.9 250.7c-7.1 0-14 0-21.1 0 0-3.8 0-7.4 0-11.1h53.5v11c-7 0-13.9 0-21 0v58.8c-3.9 0-7.6 0-11.4 0 0-19.5 0-39 0-58.7z" />
    </g>
</svg>